<svg width="43" height="47" viewBox="0 0 43 47" fill="none" xmlns="http://www.w3.org/2000/svg">
<g clip-path="url(#clip0_226_104)">
<path d="M0 13.7711C2.54417 12.5503 10.4215 9.34579 21.4164 9.34579C32.4112 9.34579 40.3006 12.5747 42.8328 13.7711V3.77903C35.966 1.24568 28.7167 -0.0332449 21.4164 0.000720178C14.116 -0.0332449 6.86675 1.24568 0 3.77903L0 13.7711Z" fill="#B6DCE1"/>
<path d="M42.8328 30.3194V20.9743C32.7815 20.9743 21.3328 12.1053 21.3328 12.1053C21.3328 12.1053 10.75 20.9743 0 20.9743V30.3194C9.85417 30.3194 17.7076 26.0161 21.5 23.4708C25.4058 25.9673 33.546 30.3194 42.8328 30.3194Z" fill="#3D5B58"/>
<path d="M42.8982 44.7425C42.8982 44.7425 32.7454 49.241 21.4818 44.7425C10.2182 40.2439 0.0654297 44.7425 0.0654297 44.7425V35.0922C0.0654297 35.0922 10.2182 30.5936 21.4818 35.0922C32.7454 39.5908 42.8982 35.0922 42.8982 35.0922V44.7425Z" fill="#93DACF"/>
</g>
<defs>
<clipPath id="clip0_226_104">
<rect width="43" height="47" fill="white"/>
</clipPath>
</defs>
</svg>
